<mxfile host="app.diagrams.net" modified="2020-07-28T09:28:49.961Z" agent="5.0 (Windows NT 10.0; Win64; x64) AppleWebKit/537.36 (KHTML, like Gecko) Chrome/84.0.4147.89 Safari/537.36" etag="APbdLVr5no-OaWcN2Zsj" version="13.5.4" type="github">
  <diagram id="ctz4EbTXEUxS3vkIjG1D" name="Page-1">
    <mxGraphModel dx="1422" dy="794" grid="1" gridSize="10" guides="1" tooltips="1" connect="1" arrows="1" fold="1" page="1" pageScale="1" pageWidth="850" pageHeight="1100" math="0" shadow="0">
      <root>
        <mxCell id="0" />
        <mxCell id="1" parent="0" />
        <mxCell id="vB_vTZ9nkY39VvNdDOIj-1" value="" style="ellipse;html=1;shape=startState;fillColor=#000000;strokeColor=#ff0000;" vertex="1" parent="1">
          <mxGeometry x="128" y="430" width="30" height="30" as="geometry" />
        </mxCell>
        <mxCell id="vB_vTZ9nkY39VvNdDOIj-2" value="" style="edgeStyle=orthogonalEdgeStyle;html=1;verticalAlign=bottom;endArrow=open;endSize=8;strokeColor=#ff0000;" edge="1" parent="1" source="vB_vTZ9nkY39VvNdDOIj-1">
          <mxGeometry relative="1" as="geometry">
            <mxPoint x="143" y="500" as="targetPoint" />
          </mxGeometry>
        </mxCell>
        <mxCell id="vB_vTZ9nkY39VvNdDOIj-3" value="" style="endArrow=none;html=1;" edge="1" parent="1">
          <mxGeometry width="50" height="50" relative="1" as="geometry">
            <mxPoint x="295" y="1380" as="sourcePoint" />
            <mxPoint x="294.5" y="410" as="targetPoint" />
          </mxGeometry>
        </mxCell>
        <mxCell id="vB_vTZ9nkY39VvNdDOIj-4" value="" style="endArrow=none;html=1;" edge="1" parent="1">
          <mxGeometry width="50" height="50" relative="1" as="geometry">
            <mxPoint x="565" y="1380" as="sourcePoint" />
            <mxPoint x="564.5" y="410" as="targetPoint" />
          </mxGeometry>
        </mxCell>
        <mxCell id="vB_vTZ9nkY39VvNdDOIj-5" value="Customer" style="text;html=1;strokeColor=none;fillColor=none;align=center;verticalAlign=middle;whiteSpace=wrap;rounded=0;" vertex="1" parent="1">
          <mxGeometry x="123" y="370" width="40" height="20" as="geometry" />
        </mxCell>
        <mxCell id="vB_vTZ9nkY39VvNdDOIj-6" value="Agent" style="text;html=1;strokeColor=none;fillColor=none;align=center;verticalAlign=middle;whiteSpace=wrap;rounded=0;" vertex="1" parent="1">
          <mxGeometry x="405" y="370" width="40" height="20" as="geometry" />
        </mxCell>
        <mxCell id="vB_vTZ9nkY39VvNdDOIj-21" style="edgeStyle=orthogonalEdgeStyle;rounded=0;orthogonalLoop=1;jettySize=auto;html=1;" edge="1" parent="1" source="vB_vTZ9nkY39VvNdDOIj-8">
          <mxGeometry relative="1" as="geometry">
            <mxPoint x="143" y="590" as="targetPoint" />
          </mxGeometry>
        </mxCell>
        <mxCell id="vB_vTZ9nkY39VvNdDOIj-8" value="Fill out an insurance application" style="shape=rect;html=1;rounded=1;whiteSpace=wrap;align=center;" vertex="1" parent="1">
          <mxGeometry x="63" y="510" width="160" height="40" as="geometry" />
        </mxCell>
        <mxCell id="vB_vTZ9nkY39VvNdDOIj-24" style="edgeStyle=orthogonalEdgeStyle;rounded=0;orthogonalLoop=1;jettySize=auto;html=1;" edge="1" parent="1" source="vB_vTZ9nkY39VvNdDOIj-10">
          <mxGeometry relative="1" as="geometry">
            <mxPoint x="430" y="800" as="targetPoint" />
          </mxGeometry>
        </mxCell>
        <mxCell id="vB_vTZ9nkY39VvNdDOIj-10" value="Processing Application" style="shape=rect;html=1;rounded=1;whiteSpace=wrap;align=center;" vertex="1" parent="1">
          <mxGeometry x="350" y="660" width="160" height="80" as="geometry" />
        </mxCell>
        <mxCell id="vB_vTZ9nkY39VvNdDOIj-11" value="Insurance Company" style="text;html=1;strokeColor=none;fillColor=none;align=center;verticalAlign=middle;whiteSpace=wrap;rounded=0;" vertex="1" parent="1">
          <mxGeometry x="673" y="370" width="40" height="20" as="geometry" />
        </mxCell>
        <mxCell id="vB_vTZ9nkY39VvNdDOIj-27" style="edgeStyle=orthogonalEdgeStyle;rounded=0;orthogonalLoop=1;jettySize=auto;html=1;exitX=0.5;exitY=1;exitDx=0;exitDy=0;" edge="1" parent="1" source="vB_vTZ9nkY39VvNdDOIj-13">
          <mxGeometry relative="1" as="geometry">
            <mxPoint x="720" y="990" as="targetPoint" />
          </mxGeometry>
        </mxCell>
        <mxCell id="vB_vTZ9nkY39VvNdDOIj-13" value="Send quote" style="shape=rect;html=1;rounded=1;whiteSpace=wrap;align=center;" vertex="1" parent="1">
          <mxGeometry x="640" y="860" width="160" height="80" as="geometry" />
        </mxCell>
        <mxCell id="vB_vTZ9nkY39VvNdDOIj-28" style="edgeStyle=orthogonalEdgeStyle;rounded=0;orthogonalLoop=1;jettySize=auto;html=1;exitX=0.5;exitY=1;exitDx=0;exitDy=0;entryX=0.5;entryY=0;entryDx=0;entryDy=0;" edge="1" parent="1" source="vB_vTZ9nkY39VvNdDOIj-15" target="vB_vTZ9nkY39VvNdDOIj-17">
          <mxGeometry relative="1" as="geometry" />
        </mxCell>
        <mxCell id="vB_vTZ9nkY39VvNdDOIj-15" value="Process best policy&amp;nbsp;" style="shape=rect;html=1;rounded=1;whiteSpace=wrap;align=center;" vertex="1" parent="1">
          <mxGeometry x="350" y="1040" width="160" height="80" as="geometry" />
        </mxCell>
        <mxCell id="vB_vTZ9nkY39VvNdDOIj-16" style="edgeStyle=orthogonalEdgeStyle;rounded=0;orthogonalLoop=1;jettySize=auto;html=1;" edge="1" parent="1" source="vB_vTZ9nkY39VvNdDOIj-17">
          <mxGeometry relative="1" as="geometry">
            <mxPoint x="133" y="1220" as="targetPoint" />
          </mxGeometry>
        </mxCell>
        <mxCell id="vB_vTZ9nkY39VvNdDOIj-17" value="Give the customer copy" style="shape=rect;html=1;rounded=1;whiteSpace=wrap;align=center;" vertex="1" parent="1">
          <mxGeometry x="350" y="1180" width="160" height="80" as="geometry" />
        </mxCell>
        <mxCell id="vB_vTZ9nkY39VvNdDOIj-18" value="" style="ellipse;html=1;shape=endState;fillColor=#000000;strokeColor=#ff0000;" vertex="1" parent="1">
          <mxGeometry x="90" y="1205" width="30" height="30" as="geometry" />
        </mxCell>
        <mxCell id="vB_vTZ9nkY39VvNdDOIj-19" value="&lt;h1&gt;Activity Diagram&lt;/h1&gt;&lt;div&gt;&lt;br&gt;&lt;/div&gt;&lt;div&gt;The purpose of the Open Access Insurance&amp;nbsp;&amp;nbsp;&lt;/div&gt;" style="text;html=1;strokeColor=none;fillColor=none;spacing=5;spacingTop=-20;whiteSpace=wrap;overflow=hidden;rounded=0;" vertex="1" parent="1">
          <mxGeometry x="90" y="80" width="680" height="270" as="geometry" />
        </mxCell>
        <mxCell id="vB_vTZ9nkY39VvNdDOIj-20" value="" style="endArrow=none;html=1;" edge="1" parent="1">
          <mxGeometry width="50" height="50" relative="1" as="geometry">
            <mxPoint x="520" y="600" as="sourcePoint" />
            <mxPoint x="63" y="600" as="targetPoint" />
          </mxGeometry>
        </mxCell>
        <mxCell id="vB_vTZ9nkY39VvNdDOIj-22" value="" style="endArrow=classic;html=1;entryX=0.5;entryY=0;entryDx=0;entryDy=0;" edge="1" parent="1" target="vB_vTZ9nkY39VvNdDOIj-10">
          <mxGeometry width="50" height="50" relative="1" as="geometry">
            <mxPoint x="430" y="600" as="sourcePoint" />
            <mxPoint x="450" y="680" as="targetPoint" />
          </mxGeometry>
        </mxCell>
        <mxCell id="vB_vTZ9nkY39VvNdDOIj-23" value="" style="endArrow=none;html=1;" edge="1" parent="1">
          <mxGeometry width="50" height="50" relative="1" as="geometry">
            <mxPoint x="340" y="800" as="sourcePoint" />
            <mxPoint x="740" y="800" as="targetPoint" />
          </mxGeometry>
        </mxCell>
        <mxCell id="vB_vTZ9nkY39VvNdDOIj-25" value="" style="endArrow=classic;html=1;entryX=0.5;entryY=0;entryDx=0;entryDy=0;" edge="1" parent="1" target="vB_vTZ9nkY39VvNdDOIj-13">
          <mxGeometry width="50" height="50" relative="1" as="geometry">
            <mxPoint x="720" y="800" as="sourcePoint" />
            <mxPoint x="450" y="780" as="targetPoint" />
          </mxGeometry>
        </mxCell>
        <mxCell id="vB_vTZ9nkY39VvNdDOIj-26" value="" style="endArrow=none;html=1;" edge="1" parent="1">
          <mxGeometry width="50" height="50" relative="1" as="geometry">
            <mxPoint x="740" y="990" as="sourcePoint" />
            <mxPoint x="340" y="990" as="targetPoint" />
          </mxGeometry>
        </mxCell>
        <mxCell id="vB_vTZ9nkY39VvNdDOIj-29" value="" style="endArrow=classic;html=1;entryX=0.5;entryY=0;entryDx=0;entryDy=0;" edge="1" parent="1" target="vB_vTZ9nkY39VvNdDOIj-15">
          <mxGeometry width="50" height="50" relative="1" as="geometry">
            <mxPoint x="430" y="990" as="sourcePoint" />
            <mxPoint x="450" y="1180" as="targetPoint" />
          </mxGeometry>
        </mxCell>
      </root>
    </mxGraphModel>
  </diagram>
</mxfile>
